<?xml version="1.0" encoding="UTF-8"?>
<svg xmlns="http://www.w3.org/2000/svg" xmlns:xlink="http://www.w3.org/1999/xlink" width="60pt" height="60pt" viewBox="0 0 60 60" version="1.1">
<g id="surface1">
<path style=" stroke:none;fill-rule:nonzero;fill:rgb(33.72549%,23.921569%,48.627451%);fill-opacity:1;" d="M 60 50 C 60 55.5 55.5 60 50 60 L 10 60 C 4.5 60 0 55.5 0 50 L 0 10 C 0 4.5 4.5 0 10 0 L 50 0 C 55.5 0 60 4.5 60 10 Z M 60 50 "/>
<path style=" stroke:none;fill-rule:nonzero;fill:rgb(100%,100%,100%);fill-opacity:1;" d="M 16.304688 13.039062 L 33.3125 13.039062 C 36.449219 13.039062 38.96875 13.753906 40.863281 15.195312 C 42.753906 16.636719 43.707031 18.804688 43.707031 21.714844 C 43.707031 23.480469 43.273438 24.988281 42.410156 26.246094 C 41.550781 27.5 40.3125 28.480469 38.707031 29.167969 L 38.707031 29.265625 C 40.863281 29.726562 42.5 30.746094 43.609375 32.324219 C 44.714844 33.910156 45.273438 35.890625 45.273438 38.285156 C 45.273438 39.65625 45.03125 40.941406 44.539062 42.128906 C 44.050781 43.324219 43.285156 44.351562 42.234375 45.214844 C 41.1875 46.078125 39.851562 46.765625 38.214844 47.273438 C 36.578125 47.785156 34.636719 48.039062 32.382812 48.039062 L 16.304688 48.039062 Z M 22.429688 27.695312 L 32.429688 27.695312 C 33.902344 27.695312 35.128906 27.285156 36.109375 26.441406 C 37.089844 25.597656 37.578125 24.402344 37.578125 22.832031 C 37.578125 21.070312 37.136719 19.824219 36.253906 19.109375 C 35.371094 18.390625 34.097656 18.03125 32.429688 18.03125 L 22.429688 18.03125 Z M 22.429688 43.039062 L 33.265625 43.039062 C 35.128906 43.039062 36.578125 42.558594 37.597656 41.589844 C 38.628906 40.628906 39.148438 39.253906 39.148438 37.488281 C 39.148438 35.753906 38.636719 34.429688 37.597656 33.488281 C 36.558594 32.550781 35.128906 32.097656 33.265625 32.097656 L 22.429688 32.097656 Z M 22.429688 43.039062 "/>
</g>
</svg>
