<?xml version="1.0" encoding="UTF-8"?>
<svg xmlns="http://www.w3.org/2000/svg" xmlns:xlink="http://www.w3.org/1999/xlink" width="53pt" height="59pt" viewBox="0 0 53 59" version="1.1">
<g id="surface1">
<path style=" stroke:none;fill-rule:nonzero;fill:rgb(8.235294%,44.705882%,71.372549%);fill-opacity:1;" d="M 5.234375 53.074219 L 0.449219 0 L 53.035156 0 L 48.246094 53.0625 L 26.710938 58.96875 Z M 5.234375 53.074219 "/>
<path style=" stroke:none;fill-rule:nonzero;fill:rgb(20%,66.27451%,86.27451%);fill-opacity:1;" d="M 26.742188 54.457031 L 44.144531 49.6875 L 48.238281 4.339844 L 26.742188 4.339844 Z M 26.742188 54.457031 "/>
<path style=" stroke:none;fill-rule:nonzero;fill:rgb(100%,100%,100%);fill-opacity:1;" d="M 9.972656 9.988281 L 9.9375 16.554688 L 36.972656 16.554688 L 36.960938 20.796875 L 9.910156 20.796875 L 9.890625 27.367188 L 36.925781 27.367188 L 36.890625 34.855469 L 26.695312 38.425781 L 16.550781 34.855469 L 16.558594 31.609375 L 9.914062 31.609375 L 9.886719 39.488281 L 26.664062 45.398438 L 43.507812 39.488281 L 43.566406 27.632812 L 43.582031 25.253906 L 43.652344 9.988281 Z M 9.972656 9.988281 "/>
</g>
</svg>
