<?xml version="1.0" encoding="UTF-8"?>
<svg xmlns="http://www.w3.org/2000/svg" xmlns:xlink="http://www.w3.org/1999/xlink" width="80pt" height="60pt" viewBox="0 0 80 60" version="1.1">
<g id="surface1">
<path style=" stroke:none;fill-rule:nonzero;fill:rgb(80.392157%,40.392157%,60%);fill-opacity:1;" d="M 68.84375 34.484375 C 66.054688 34.496094 63.628906 35.167969 61.597656 36.164062 C 60.855469 34.6875 60.109375 33.375 59.976562 32.410156 C 59.832031 31.285156 59.65625 30.597656 59.832031 29.253906 C 60.007812 27.910156 60.796875 26 60.78125 25.851562 C 60.765625 25.707031 60.605469 25.019531 59 25.003906 C 57.394531 24.992188 56.003906 25.3125 55.84375 25.734375 C 55.683594 26.160156 55.378906 27.121094 55.171875 28.117188 C 54.894531 29.578125 51.960938 34.789062 50.28125 37.519531 C 49.742188 36.453125 49.273438 35.519531 49.171875 34.777344 C 49.023438 33.652344 48.851562 32.964844 49.023438 31.621094 C 49.199219 30.277344 49.988281 28.363281 49.972656 28.21875 C 49.960938 28.074219 49.800781 27.386719 48.191406 27.371094 C 46.585938 27.355469 45.199219 27.679688 45.039062 28.101562 C 44.878906 28.523438 44.703125 29.519531 44.367188 30.480469 C 44.03125 31.445312 40.132812 40.148438 39.109375 42.398438 C 38.582031 43.550781 38.128906 44.472656 37.808594 45.101562 C 37.808594 45.101562 37.792969 45.144531 37.75 45.21875 C 37.472656 45.757812 37.3125 46.050781 37.3125 46.050781 C 37.3125 46.050781 37.3125 46.050781 37.3125 46.0625 C 37.09375 46.457031 36.859375 46.824219 36.742188 46.824219 C 36.65625 46.824219 36.496094 45.773438 36.773438 44.339844 C 37.355469 41.316406 38.742188 36.617188 38.730469 36.453125 C 38.730469 36.367188 38.992188 35.550781 37.824219 35.125 C 36.683594 34.703125 36.277344 35.402344 36.171875 35.402344 C 36.070312 35.402344 36 35.652344 36 35.652344 C 36 35.652344 37.269531 30.363281 33.574219 30.363281 C 31.265625 30.363281 28.082031 32.890625 26.507812 35.167969 C 25.511719 35.710938 23.394531 36.863281 21.132812 38.105469 C 20.269531 38.585938 19.378906 39.070312 18.546875 39.523438 C 18.488281 39.464844 18.429688 39.390625 18.371094 39.332031 C 13.902344 34.554688 5.636719 31.183594 5.988281 24.773438 C 6.117188 22.433594 6.921875 16.300781 21.863281 8.855469 C 34.160156 2.792969 43.941406 4.472656 45.636719 8.195312 C 48.0625 13.511719 40.394531 23.382812 27.6875 24.816406 C 22.839844 25.355469 20.300781 23.488281 19.65625 22.785156 C 18.984375 22.054688 18.882812 22.011719 18.632812 22.15625 C 18.226562 22.375 18.488281 23.035156 18.632812 23.414062 C 19.015625 24.40625 20.578125 26.160156 23.21875 27.019531 C 25.558594 27.78125 31.238281 28.203125 38.117188 25.546875 C 45.8125 22.566406 51.828125 14.285156 50.0625 7.347656 C 48.296875 0.308594 36.613281 -2.011719 25.558594 1.917969 C 18.984375 4.253906 11.859375 7.933594 6.730469 12.722656 C 0.640625 18.417969 -0.320312 23.371094 0.0742188 25.445312 C 1.488281 32.804688 11.640625 37.59375 15.699219 41.144531 C 15.496094 41.257812 15.304688 41.363281 15.144531 41.449219 C 13.113281 42.457031 5.375 46.503906 3.445312 50.78125 C 1.257812 55.628906 3.796875 59.105469 5.476562 59.574219 C 10.691406 61.019531 16.050781 58.417969 18.925781 54.125 C 21.804688 49.832031 21.453125 44.253906 20.125 41.699219 C 20.109375 41.667969 20.09375 41.640625 20.066406 41.609375 C 20.589844 41.304688 21.132812 40.980469 21.65625 40.675781 C 22.695312 40.0625 23.714844 39.492188 24.59375 39.023438 C 24.097656 40.382812 23.730469 42.003906 23.554688 44.339844 C 23.335938 47.085938 24.460938 50.648438 25.9375 52.050781 C 26.59375 52.664062 27.367188 52.679688 27.863281 52.679688 C 29.585938 52.679688 30.363281 51.25 31.222656 49.554688 C 32.273438 47.480469 33.222656 45.070312 33.222656 45.070312 C 33.222656 45.070312 32.039062 51.585938 35.253906 51.585938 C 36.421875 51.585938 37.605469 50.066406 38.128906 49.292969 C 38.128906 49.304688 38.128906 49.304688 38.128906 49.304688 C 38.128906 49.304688 38.160156 49.261719 38.21875 49.160156 C 38.335938 48.96875 38.40625 48.855469 38.40625 48.855469 C 38.40625 48.855469 38.40625 48.839844 38.40625 48.824219 C 38.875 48.007812 39.925781 46.152344 41.488281 43.070312 C 43.503906 39.097656 45.445312 34.132812 45.445312 34.132812 C 45.445312 34.132812 45.621094 35.34375 46.222656 37.359375 C 46.570312 38.542969 47.300781 39.84375 47.886719 41.097656 C 47.417969 41.757812 47.125 42.121094 47.125 42.121094 C 47.125 42.121094 47.125 42.121094 47.140625 42.136719 C 46.761719 42.632812 46.351562 43.171875 45.898438 43.699219 C 44.308594 45.597656 42.410156 47.773438 42.148438 48.402344 C 41.839844 49.144531 41.914062 49.6875 42.496094 50.125 C 42.921875 50.445312 43.679688 50.488281 44.453125 50.445312 C 45.886719 50.34375 46.894531 49.992188 47.390625 49.773438 C 48.164062 49.496094 49.070312 49.074219 49.917969 48.445312 C 51.480469 47.289062 52.429688 45.640625 52.339844 43.464844 C 52.296875 42.265625 51.902344 41.070312 51.421875 39.945312 C 51.566406 39.742188 51.699219 39.535156 51.84375 39.332031 C 54.3125 35.726562 56.226562 31.765625 56.226562 31.765625 C 56.226562 31.765625 56.398438 32.980469 57 34.996094 C 57.289062 36.015625 57.890625 37.125 58.414062 38.207031 C 56.09375 40.089844 54.664062 42.28125 54.152344 43.714844 C 53.230469 46.371094 53.945312 47.570312 55.304688 47.847656 C 55.917969 47.976562 56.792969 47.683594 57.4375 47.40625 C 58.253906 47.144531 59.21875 46.691406 60.140625 46.019531 C 61.703125 44.867188 63.207031 43.261719 63.117188 41.085938 C 63.074219 40.089844 62.8125 39.113281 62.445312 38.164062 C 64.417969 37.347656 66.957031 36.894531 70.199219 37.273438 C 77.152344 38.089844 78.523438 42.429688 78.261719 44.253906 C 78 46.078125 76.539062 47.070312 76.058594 47.378906 C 75.574219 47.683594 75.414062 47.789062 75.457031 48.007812 C 75.515625 48.328125 75.75 48.3125 76.160156 48.253906 C 76.730469 48.152344 79.808594 46.78125 79.941406 43.421875 C 80.160156 39.128906 76.070312 34.441406 68.84375 34.484375 Z M 15.21875 52.5625 C 12.910156 55.074219 9.695312 56.023438 8.308594 55.222656 C 6.820312 54.359375 7.402344 50.648438 10.238281 47.992188 C 11.960938 46.371094 14.179688 44.867188 15.65625 43.945312 C 15.992188 43.742188 16.488281 43.449219 17.085938 43.085938 C 17.1875 43.027344 17.246094 42.996094 17.246094 42.996094 C 17.363281 42.925781 17.480469 42.851562 17.597656 42.777344 C 18.632812 46.574219 17.640625 49.917969 15.21875 52.5625 Z M 32.011719 41.144531 C 31.207031 43.101562 29.527344 48.109375 28.507812 47.832031 C 27.628906 47.597656 27.089844 43.800781 28.332031 40.046875 C 28.960938 38.164062 30.289062 35.914062 31.0625 35.039062 C 32.320312 33.636719 33.707031 33.167969 34.042969 33.738281 C 34.464844 34.484375 32.507812 39.917969 32.011719 41.144531 Z M 45.871094 47.773438 C 45.535156 47.949219 45.214844 48.066406 45.066406 47.976562 C 44.964844 47.917969 45.214844 47.683594 45.214844 47.683594 C 45.214844 47.683594 46.953125 45.816406 47.636719 44.96875 C 48.03125 44.472656 48.5 43.886719 48.996094 43.230469 C 48.996094 43.289062 48.996094 43.363281 48.996094 43.421875 C 48.996094 45.65625 46.835938 47.160156 45.871094 47.773438 Z M 56.5625 45.335938 C 56.3125 45.160156 56.355469 44.574219 57.1875 42.75 C 57.511719 42.035156 58.269531 40.835938 59.570312 39.683594 C 59.714844 40.148438 59.816406 40.601562 59.804688 41.027344 C 59.789062 43.84375 57.773438 44.894531 56.5625 45.335938 Z M 56.5625 45.335938 "/>
</g>
</svg>
